<svg xmlns="http://www.w3.org/2000/svg" xmlns:xlink="http://www.w3.org/1999/xlink" width="1536" height="600" viewBox="0 0 1536 600">
  <defs>
    <clipPath id="clip-new-car-insurance_hero-block-image">
      <rect width="1536" height="600"/>
    </clipPath>
  </defs>
  <g id="new-car-insurance_hero-block-image" clip-path="url(#clip-new-car-insurance_hero-block-image)">
    <rect width="1536" height="600" fill="#fff"/>
    <g id="hero-new-car-insurance" transform="translate(-849.122 -371.436)">
      <rect id="Rectangle_2489" data-name="Rectangle 2489" width="2251.699" height="1078.939" transform="translate(0 1.298)" fill="#2480fe"/>
      <path id="Path_88236" data-name="Path 88236" d="M861.165,964.346h332.923a146.447,146.447,0,0,0-16.4-42.563L1070.76,736.6a91.849,91.849,0,0,0,45.769-12.322h0a92.961,92.961,0,0,0,33.932-126.658l-39.764-68.8c41.156,46.238,110.88,59.013,166.469,26.927h0a133.835,133.835,0,0,0,48.849-182.231L1179.421,119.661A133.835,133.835,0,0,0,997.189,70.812h0a133.835,133.835,0,0,0-48.834,182.294l86.815,150.379a93.039,93.039,0,0,0-113.085-16h0a92.961,92.961,0,0,0-33.932,126.658l32.837,57a147.111,147.111,0,0,0-107.3,15.762h0c-70.366,40.656-94.681,131.349-54.056,201.715Z" transform="translate(417.097 29.92)" fill="#3b8dfe"/>
      <path id="Path_88237" data-name="Path 88237" d="M121.564,114.411A67.735,67.735,0,0,1,171.84,48.974a67.723,67.723,0,1,0,.012,130.893,67.739,67.739,0,0,1-50.288-65.456Z" transform="translate(48.877 26.321)" fill="#3b8dfe"/>
      <circle id="Ellipse_1155" data-name="Ellipse 1155" cx="6.067" cy="6.067" r="6.067" transform="translate(1170.117 73.008)" fill="#3b8dfe"/>
      <circle id="Ellipse_1156" data-name="Ellipse 1156" cx="6.067" cy="6.067" r="6.067" transform="translate(1473.487 33.885)" fill="#3b8dfe"/>
      <circle id="Ellipse_1157" data-name="Ellipse 1157" cx="6.067" cy="6.067" r="6.067" transform="translate(606.067 66.941)" fill="#3b8dfe"/>
      <circle id="Ellipse_1158" data-name="Ellipse 1158" cx="6.067" cy="6.067" r="6.067" transform="translate(365.823 128.597)" fill="#3b8dfe"/>
      <circle id="Ellipse_1159" data-name="Ellipse 1159" cx="6.067" cy="6.067" r="6.067" transform="translate(63.97 44.018)" fill="#3b8dfe"/>
      <circle id="Ellipse_1160" data-name="Ellipse 1160" cx="6.067" cy="6.067" r="6.067" transform="translate(1071.371 160.59)" fill="#3b8dfe"/>
      <path id="Path_88238" data-name="Path 88238" d="M1222.678.82h-56.934L944.28,320.655h56.934Z" transform="translate(532.272 0.462)" fill="#0064dc"/>
      <path id="Path_88239" data-name="Path 88239" d="M1170.712.82h-21.282L935.69,309.506l13.573,11.149Z" transform="translate(527.43 0.462)" fill="#6bacfb"/>
      <path id="Path_88240" data-name="Path 88240" d="M1831.661.031V321.117H1017.584L980.69,365.244V908.311h867.285V0Z" transform="translate(552.795)" fill="#6bacfb"/>
      <path id="Path_88241" data-name="Path 88241" d="M980.58,249.753l.172-.266V205.36Z" transform="translate(552.734 115.757)" fill="#e2a6e2"/>
      <path id="Path_88242" data-name="Path 88242" d="M980.69,205.36v44.127l30.554-44.127Z" transform="translate(552.795 115.757)" fill="#0064dc"/>
      <path id="Path_88243" data-name="Path 88243" d="M1221.694,1.271,1000.23,321.106h687.3V.02L1191.14,1.271Z" transform="translate(563.81 0.011)" fill="#3b8dfe"/>
      <path id="Path_88244" data-name="Path 88244" d="M1232.708.82h-30.554L980.69,320.655h30.554Z" transform="translate(552.795 0.462)" fill="#2480fe"/>
      <path id="Path_88245" data-name="Path 88245" d="M1698.826,206.424H980.972a.782.782,0,0,1,0-1.564h717.854a.782.782,0,0,1,0,1.564Z" transform="translate(552.514 115.476)" fill="#2480fe"/>
      <path id="Path_88246" data-name="Path 88246" d="M1691.487,187.564H993.992a.782.782,0,1,1,0-1.564h697.495a.782.782,0,1,1,0,1.564Z" transform="translate(559.853 104.845)" fill="#2480fe"/>
      <path id="Path_88247" data-name="Path 88247" d="M1684.125,168.694H1007.052a.782.782,0,1,1,0-1.564h677.073a.782.782,0,1,1,0,1.564Z" transform="translate(567.214 94.208)" fill="#2480fe"/>
      <path id="Path_88248" data-name="Path 88248" d="M1676.8,149.824H1020.052a.782.782,0,0,1,0-1.564H1676.8a.782.782,0,1,1,0,1.564Z" transform="translate(574.542 83.571)" fill="#2480fe"/>
      <path id="Path_88249" data-name="Path 88249" d="M1669.47,130.964H1033.052a.782.782,0,0,1,0-1.564H1669.47a.782.782,0,0,1,0,1.564Z" transform="translate(581.87 72.94)" fill="#2480fe"/>
      <path id="Path_88250" data-name="Path 88250" d="M1662.141,112.094H1046.052a.782.782,0,1,1,0-1.564h616.089a.782.782,0,1,1,0,1.564Z" transform="translate(589.198 62.304)" fill="#2480fe"/>
      <path id="Path_88251" data-name="Path 88251" d="M1654.814,93.224H1059.052a.782.782,0,1,1,0-1.564h595.762a.782.782,0,1,1,0,1.564Z" transform="translate(596.526 51.667)" fill="#2480fe"/>
      <path id="Path_88252" data-name="Path 88252" d="M1647.447,74.354H1072.122a.782.782,0,1,1,0-1.564h575.325a.782.782,0,0,1,0,1.564Z" transform="translate(603.893 41.03)" fill="#2480fe"/>
      <path id="Path_88253" data-name="Path 88253" d="M1640.108,55.494H1085.142a.782.782,0,1,1,0-1.564h554.966a.782.782,0,1,1,0,1.564Z" transform="translate(611.232 30.399)" fill="#2480fe"/>
      <path id="Path_88254" data-name="Path 88254" d="M1632.768,36.624H1098.162a.782.782,0,1,1,0-1.564h534.606a.782.782,0,1,1,0,1.564Z" transform="translate(618.571 19.763)" fill="#2480fe"/>
      <path id="Path_88255" data-name="Path 88255" d="M1625.429,17.754H1111.182a.782.782,0,1,1,0-1.564h514.248a.782.782,0,0,1,0,1.564Z" transform="translate(625.911 9.126)" fill="#2480fe"/>
      <rect id="Rectangle_2490" data-name="Rectangle 2490" width="220.682" height="304.98" transform="translate(1765.207 449.636)" fill="#2480fe"/>
      <rect id="Rectangle_2491" data-name="Rectangle 2491" width="243.105" height="24.753" transform="translate(1783.706 739.199)" fill="#e8bae2"/>
      <rect id="Rectangle_2492" data-name="Rectangle 2492" width="191.66" height="274.129" transform="translate(1779.719 465.054)" fill="#3b8dfe"/>
      <path id="Line_3403" data-name="Line 3403" d="M191.66.5H0A.5.5,0,0,1-.5,0,.5.5,0,0,1,0-.5H191.66a.5.5,0,0,1,.5.5A.5.5,0,0,1,191.66.5Z" transform="translate(1779.719 602.126)" fill="#e8bae2"/>
      <path id="Path_88256" data-name="Path 88256" d="M1199.721,572.618a.782.782,0,0,1-.782-.782V297.692a.782.782,0,0,1,1.564,0V571.836A.782.782,0,0,1,1199.721,572.618Z" transform="translate(675.819 167.362)" fill="#2480fe"/>
      <rect id="Rectangle_2493" data-name="Rectangle 2493" width="59.686" height="20.093" transform="translate(1614 389.747)" fill="#3b8dfe"/>
      <rect id="Rectangle_2494" data-name="Rectangle 2494" width="59.686" height="20.093" transform="translate(1647.65 365.244)" fill="#3b8dfe"/>
      <rect id="Rectangle_2495" data-name="Rectangle 2495" width="2251.699" height="1078.939" transform="translate(0 1.298)" fill="none"/>
      <path id="Path_88257" data-name="Path 88257" d="M1330.4,311.4h47.708v58.325a23.862,23.862,0,0,1-23.8,23.924h0a23.862,23.862,0,0,1-23.862-23.862h0V311.4Z" transform="translate(749.92 175.53)" fill="#3b8dfe"/>
      <path id="Path_88258" data-name="Path 88258" d="M1378.108,367.7V337.83L1362.268,315H1330.4v52.7a23.862,23.862,0,0,0,47.708,0Z" transform="translate(749.92 177.559)" fill="#3b8dfe"/>
      <path id="Path_88259" data-name="Path 88259" d="M1321.28,311.96h47.708l-14.057,41.61h-19.593Z" transform="translate(744.779 175.846)" fill="#fff"/>
      <path id="Path_88260" data-name="Path 88260" d="M1373.857,316.584h-4.691l-6.74-14.276H1350.2v-7.662a2.345,2.345,0,1,0-4.691,0v7.662h-12.15l-6.74,14.276h-4.691a5.583,5.583,0,0,0-5.567,5.567h0a5.582,5.582,0,0,0,5.567,5.567h51.9a5.582,5.582,0,0,0,5.567-5.567h0A5.582,5.582,0,0,0,1373.857,316.584Z" transform="translate(742.006 164.764)" fill="#0064dc"/>
      <path id="Path_88261" data-name="Path 88261" d="M925.241,426.29H881.27a12.807,12.807,0,0,0-11.618,18.154h0a20.8,20.8,0,0,0,18.889,12.1h49.318Z" transform="translate(489.546 240.291)" fill="#91d8e8"/>
      <path id="Path_88262" data-name="Path 88262" d="M1011.484,476.19l438.722,4.128-7.005,84.439-64.408-.016L984.12,575.625Z" transform="translate(554.729 268.419)" fill="#292852"/>
      <circle id="Ellipse_1161" data-name="Ellipse 1161" cx="64.267" cy="64.267" r="64.267" transform="translate(1523.791 779.776)" fill="#292852"/>
      <circle id="Ellipse_1162" data-name="Ellipse 1162" cx="43.158" cy="43.158" r="43.158" transform="translate(1544.9 800.886)" fill="#fff"/>
      <path id="Ellipse_1163" data-name="Ellipse 1163" d="M14.542-.5A15.042,15.042,0,0,1,25.179,25.179,15.042,15.042,0,1,1,3.906,3.906,14.944,14.944,0,0,1,14.542-.5Zm0,29.084A14.042,14.042,0,0,0,24.472,4.613,14.042,14.042,0,0,0,4.613,24.472,13.95,13.95,0,0,0,14.542,28.584Z" transform="translate(1573.516 829.501)" fill="#4ebee5"/>
      <circle id="Ellipse_1164" data-name="Ellipse 1164" cx="64.267" cy="64.267" r="64.267" transform="translate(1284.36 779.776)" fill="#292852"/>
      <circle id="Ellipse_1165" data-name="Ellipse 1165" cx="43.158" cy="43.158" r="43.158" transform="translate(1305.47 800.886)" fill="#3179c9"/>
      <path id="Path_88263" data-name="Path 88263" d="M878.031,526.836a43.126,43.126,0,0,1,42.485,35.871,43.158,43.158,0,1,0-84.986,0,43.126,43.126,0,0,1,42.5-35.871Z" transform="translate(470.596 288.607)" fill="#259ed9"/>
      <path id="Ellipse_1166" data-name="Ellipse 1166" d="M14.542-.5A15.042,15.042,0,0,1,25.179,25.179,15.042,15.042,0,1,1,3.906,3.906,14.944,14.944,0,0,1,14.542-.5Zm0,29.084A14.042,14.042,0,0,0,24.472,4.613,14.042,14.042,0,0,0,4.613,24.472,13.95,13.95,0,0,0,14.542,28.584Z" transform="translate(1334.085 829.501)" fill="#292852"/>
      <rect id="Rectangle_2496" data-name="Rectangle 2496" width="26.629" height="128.535" transform="translate(1918.495 779.776)" fill="#292852"/>
      <ellipse id="Ellipse_1167" data-name="Ellipse 1167" cx="44.283" cy="64.267" rx="44.283" ry="64.267" transform="translate(1874.211 779.776)" fill="#292852"/>
      <ellipse id="Ellipse_1168" data-name="Ellipse 1168" cx="44.283" cy="64.267" rx="44.283" ry="64.267" transform="translate(1900.841 779.776)" fill="#292852"/>
      <ellipse id="Ellipse_1169" data-name="Ellipse 1169" cx="29.741" cy="43.158" rx="29.741" ry="43.158" transform="translate(1915.383 800.886)" fill="#fff"/>
      <path id="Path_88264" data-name="Path 88264" d="M1254.639,526.738c14.714,0,26.9,15.512,29.288,35.871a62.373,62.373,0,0,0,.453-7.271c0-23.83-13.306-43.158-29.71-43.158s-29.71,19.311-29.71,43.158a62.191,62.191,0,0,0,.454,7.271C1227.744,542.25,1239.924,526.738,1254.639,526.738Z" transform="translate(690.486 288.706)" fill="#4ebee5"/>
      <path id="Ellipse_1170" data-name="Ellipse 1170" d="M10.023-.5c2.847,0,5.51,1.589,7.5,4.476a18.748,18.748,0,0,1,3.024,10.567,18.748,18.748,0,0,1-3.024,10.567c-1.989,2.886-4.653,4.476-7.5,4.476S4.513,28,2.524,25.109A18.748,18.748,0,0,1-.5,14.542,18.748,18.748,0,0,1,2.524,3.976C4.513,1.089,7.177-.5,10.023-.5Zm0,29.084c5.251,0,9.523-6.3,9.523-14.042S15.274.5,10.023.5.5,6.8.5,14.542,4.772,28.584,10.023,28.584Z" transform="translate(1935.101 829.501)" fill="#4ebee5"/>
      <rect id="Rectangle_2497" data-name="Rectangle 2497" width="26.629" height="128.535" transform="translate(1679.908 779.776)" fill="#292852"/>
      <ellipse id="Ellipse_1171" data-name="Ellipse 1171" cx="44.283" cy="64.267" rx="44.283" ry="64.267" transform="translate(1635.625 779.776)" fill="#292852"/>
      <ellipse id="Ellipse_1172" data-name="Ellipse 1172" cx="44.283" cy="64.267" rx="44.283" ry="64.267" transform="translate(1662.255 779.776)" fill="#292852"/>
      <ellipse id="Ellipse_1173" data-name="Ellipse 1173" cx="29.741" cy="43.158" rx="29.741" ry="43.158" transform="translate(1676.797 800.886)" fill="#3179c9"/>
      <path id="Path_88265" data-name="Path 88265" d="M1102.059,526.738c14.714,0,26.9,15.512,29.287,35.871a62.214,62.214,0,0,0,.454-7.271c0-23.83-13.307-43.158-29.71-43.158s-29.71,19.311-29.71,43.158a62.218,62.218,0,0,0,.454,7.271C1075.163,542.25,1087.344,526.738,1102.059,526.738Z" transform="translate(604.479 288.706)" fill="#91d8e8"/>
      <path id="Ellipse_1174" data-name="Ellipse 1174" d="M10.023-.5c2.847,0,5.51,1.589,7.5,4.476a18.748,18.748,0,0,1,3.024,10.567,18.748,18.748,0,0,1-3.024,10.567c-1.989,2.886-4.653,4.476-7.5,4.476S4.513,28,2.524,25.109A18.748,18.748,0,0,1-.5,14.542,18.748,18.748,0,0,1,2.524,3.976C4.513,1.089,7.177-.5,10.023-.5Zm0,29.084c5.251,0,9.523-6.3,9.523-14.042S15.274.5,10.023.5.5,6.8.5,14.542,4.772,28.584,10.023,28.584Z" transform="translate(1696.515 829.501)" fill="#4ebee5"/>
      <path id="Path_88266" data-name="Path 88266" d="M1081.442,437.39h-9.022l-10.54,34.979h52.43l3.831-4.722Z" transform="translate(598.561 246.548)" fill="#fff"/>
      <path id="Path_88267" data-name="Path 88267" d="M1066.32,428.432s6.833,8.162,18.765,20.75c16.606,17.607,37.074,2.08,23.721-15.512-9.164-12.056-9.179-5.238-9.179-5.238Z" transform="translate(601.064 240.416)" fill="#91d8e8"/>
      <path id="Line_3404" data-name="Line 3404" d="M185.64.5H0A.5.5,0,0,1-.5,0,.5.5,0,0,1,0-.5H185.64a.5.5,0,0,1,.5.5A.5.5,0,0,1,185.64.5Z" transform="translate(1688.571 844.262)" fill="#4ebee5"/>
      <path id="Path_88268" data-name="Path 88268" d="M1164.095,440.035h-27.318a3.127,3.127,0,0,1,0-6.255h27.318a3.127,3.127,0,1,1,0,6.255Z" transform="translate(639.016 244.513)" fill="#4ebee5"/>
      <path id="Path_88269" data-name="Path 88269" d="M1238.625,440.035h-27.318a3.127,3.127,0,1,1,0-6.255h27.318a3.127,3.127,0,1,1,0,6.255Z" transform="translate(681.027 244.513)" fill="#4ebee5"/>
      <path id="Path_88270" data-name="Path 88270" d="M961.609,438.37s-90.271,10.148-148.722,27.02c-22.861,6.6-40.077,28.021-40.077,55.417V591.6a23.236,23.236,0,0,0,23.236,23.236h264.262l36.731-110.365,115.916-66.1Z" transform="translate(435.618 247.1)" fill="#91d8e8"/>
      <path id="Path_88271" data-name="Path 88271" d="M1229.913,356.47l-95.994,128.065H893.55l90.412-120.982a15.636,15.636,0,0,1,13.119-7.083Z" transform="translate(503.676 200.935)" fill="#91d8e8"/>
      <path id="Path_88272" data-name="Path 88272" d="M1483.935,481l-31.273-91.757h0a10.946,10.946,0,0,0-6.583-17.4c-28.146-5.6-97.167-14.918-247.062-15.355a18.091,18.091,0,0,0-15.887,9.382c-15.371,27.787-54.244,91.491-67.8,118.84v-.156s-92.961,11.868-148.722,27.02c-22.939,6.411-40.077,24.659-40.077,55.417v94.008h74.228a16.809,16.809,0,0,0,16.81-16.81V621.555a48.177,48.177,0,0,1,48.036-48.036h0a48.177,48.177,0,0,1,48.052,48.036v22.564a16.81,16.81,0,0,0,16.81,16.81h225.248a18.061,18.061,0,0,0,17.983-18.045c0-43,21.625-69.365,48.036-69.365h0c30.883,0,48.036,30.8,48.036,52.9a5.754,5.754,0,0,0,10.289,3.565l14.855-18.874a44.126,44.126,0,0,0,9.382-27.3V515.975a25.908,25.908,0,0,0-7.486-18.213l-6.868-6.931A25.91,25.91,0,0,1,1483.935,481Z" transform="translate(522.267 200.941)" fill="#fff"/>
      <path id="Path_88273" data-name="Path 88273" d="M1377.644,479.872l-19.03-69.287a49.71,49.71,0,0,0-43.1-36.23c-31.149-3.127-84.7-6.74-165.422-7.365a39.92,39.92,0,0,0-35.683,21.438c-18.686,35.746-52.524,100.326-52.524,100.326H1243.7Z" transform="translate(598.566 206.865)" fill="#292852"/>
      <path id="Path_88274" data-name="Path 88274" d="M1090.416,435.82l25.77,25.128c5.473,5.332,2.345,15.809-5.864,19.64h0c-7.146,3.331-14.761,2.5-19.515-2.142l-28.9-28.146Z" transform="translate(598.578 245.663)" fill="#91d8e8"/>
      <path id="Path_88275" data-name="Path 88275" d="M1074.069,426.29h43.971a12.807,12.807,0,0,1,11.618,18.154h0a20.8,20.8,0,0,1-18.889,12.1H1061.45Z" transform="translate(598.318 240.291)" fill="#fff"/>
      <rect id="Rectangle_2498" data-name="Rectangle 2498" width="97.323" height="182.841" transform="translate(1588.058 761.246)" fill="none"/>
      <circle id="Ellipse_1175" data-name="Ellipse 1175" cx="64.267" cy="64.267" r="64.267" transform="translate(1523.791 779.776)" fill="#292852"/>
      <path id="Path_88276" data-name="Path 88276" d="M1031.151,526.837a43.126,43.126,0,0,1,42.485,35.871,43.158,43.158,0,1,0-84.986,0,43.126,43.126,0,0,1,42.5-35.871Z" transform="translate(556.907 288.607)" fill="#4ebee5"/>
      <path id="Path_88277" data-name="Path 88277" d="M783.85,611.343,803.458,582.4l.391-84.58c0-27.286,54.729-45.613,157.76-59.42,0,0-90.271,10.148-148.722,27.02-22.861,6.6-40.077,28.021-40.077,55.417v70.788a23.189,23.189,0,0,0,11.04,19.718Z" transform="translate(435.618 247.117)" fill="#fff"/>
      <path id="Path_88278" data-name="Path 88278" d="M787.66,559.185l15.371-22.095h160.4l18.577,22.095Z" transform="translate(443.988 302.747)" fill="#292852"/>
      <path id="Path_88279" data-name="Path 88279" d="M916.281,497.624h72.476a25.379,25.379,0,0,0,25.019-20.672l3.315-17.544a7.506,7.506,0,0,0-8.741-8.772l-67.457,12.509a33.51,33.51,0,0,0-26.02,23.314l-1.97,6.552a3.581,3.581,0,0,0,3.378,4.691Z" transform="translate(514.486 253.943)" fill="#259ed9"/>
      <path id="Path_88280" data-name="Path 88280" d="M803,454.575c.672-.156,1.267-.313,1.845-.485Z" transform="translate(452.635 255.962)" fill="#259ed9"/>
      <path id="Path_88281" data-name="Path 88281" d="M809.059,468.93H950.682a11.6,11.6,0,0,1,11.54,12.791l-5.41,52.242a11.6,11.6,0,0,1-11.54,10.4H809.279a11.6,11.6,0,0,1-11.6-11.54l-.266-52.242a11.6,11.6,0,0,1,11.555-11.65h.094Z" transform="translate(449.484 264.327)" fill="#292852"/>
      <path id="Path_88282" data-name="Path 88282" d="M774.19,494.726h13.588a7.553,7.553,0,0,0,7.553-7.115c.579-10.3,3.518-28.521,16.763-31.962A55.479,55.479,0,0,0,774.19,494.726Z" transform="translate(436.396 256.841)" fill="#91d8e8"/>
      <path id="Path_88283" data-name="Path 88283" d="M909.91,517.18H973.1A19.154,19.154,0,0,1,991.705,531.8v0A19.155,19.155,0,0,1,973.1,555.49H935.9Z" transform="translate(512.898 291.524)" fill="#292852"/>
      <path id="Path_88284" data-name="Path 88284" d="M772.81,517.186v29.992a23.217,23.217,0,0,0,.97,6.63l24.847-36.637Z" transform="translate(435.618 291.518)" fill="#292852"/>
      <circle id="Ellipse_1176" data-name="Ellipse 1176" cx="11.258" cy="11.258" r="11.258" transform="translate(1473.722 816.601)" fill="#ffb061"/>
      <path id="Line_3405" data-name="Line 3405" d="M169.081.5H0v-1H169.081Z" transform="translate(1247.082 770.972)" fill="#91d8e8"/>
      <path id="Line_3406" data-name="Line 3406" d="M169.081.5H0v-1H169.081Z" transform="translate(1247.082 751.567)" fill="#91d8e8"/>
      <path id="Line_3407" data-name="Line 3407" d="M169.221.5H0v-1H169.221Z" transform="translate(1246.941 789.69)" fill="#91d8e8"/>
      <path id="Path_88285" data-name="Path 88285" d="M990.6,450.643l-4.55.844-3.94,21.125A15.48,15.48,0,0,1,966.9,485.247h-19.64l-3.128,12.369h26.927a25.379,25.379,0,0,0,25.019-20.672L999.39,459.4a7.505,7.505,0,0,0-8.709-8.757Z" transform="translate(532.188 253.951)" fill="#ffb061"/>
      <path id="Path_88286" data-name="Path 88286" d="M982.417,485.389H914.1a.5.5,0,0,1,0-1h68.317a16.486,16.486,0,0,0,16.209-13.48l3.69-19.84a.5.5,0,1,1,.983.183l-3.69,19.84A17.486,17.486,0,0,1,982.417,485.389Z" transform="translate(515.26 254.31)" fill="#fff"/>
      <circle id="Ellipse_1177" data-name="Ellipse 1177" cx="7.13" cy="7.13" r="7.13" transform="translate(1489.108 715.196)" fill="#91d8e8"/>
      <circle id="Ellipse_1178" data-name="Ellipse 1178" cx="7.13" cy="7.13" r="7.13" transform="translate(1466.591 717.776)" fill="#91d8e8"/>
      <path id="Line_3408" data-name="Line 3408" d="M16.653.5H0A.5.5,0,0,1-.5,0,.5.5,0,0,1,0-.5H16.653a.5.5,0,0,1,.5.5A.5.5,0,0,1,16.653.5Z" transform="translate(1215.558 739.199)" fill="#fff"/>
      <path id="Path_88287" data-name="Path 88287" d="M1197.967,366.93H977L893.55,478.639h240.369Z" transform="translate(503.676 206.831)" fill="#292852"/>
      <rect id="Rectangle_2499" data-name="Rectangle 2499" width="205.124" height="5.926" rx="1.89" transform="translate(1671.011 841.088)" fill="#292852"/>
      <path id="Path_88288" data-name="Path 88288" d="M1145.735,452h28.146a3.675,3.675,0,0,1,3.674,3.675h0a3.675,3.675,0,0,1-3.674,3.675h-28.146a3.675,3.675,0,0,1-3.675-3.675h0A3.675,3.675,0,0,1,1145.735,452Z" transform="translate(643.757 254.783)" fill="#4ebee5"/>
      <path id="Path_88289" data-name="Path 88289" d="M1216.435,452h28.146a3.674,3.674,0,0,1,3.674,3.675h0a3.675,3.675,0,0,1-3.674,3.675h-28.146a3.675,3.675,0,0,1-3.675-3.675h0A3.675,3.675,0,0,1,1216.435,452Z" transform="translate(683.609 254.783)" fill="#4ebee5"/>
      <path id="Path_88290" data-name="Path 88290" d="M1137.634,367a39.92,39.92,0,0,0-35.683,21.438L1084,422.839h265.513l-3.346-12.165a49.709,49.709,0,0,0-43.095-36.23C1271.907,371.3,1218.351,367.61,1137.634,367Z" transform="translate(611.03 206.87)" fill="#375591"/>
      <path id="Path_88291" data-name="Path 88291" d="M1174.578,491.135l-7.818-126.2h8.053L1184.586,493Z" transform="translate(657.679 205.704)" fill="#fff"/>
      <path id="Path_88292" data-name="Path 88292" d="M1197.967,366.93H977L893.55,478.639s92.773-55.808,272.393-55.855Z" transform="translate(503.676 206.831)" fill="#375591"/>
      <path id="Path_88293" data-name="Path 88293" d="M1283.6,460.035v39.28a5.723,5.723,0,0,0,5.723,5.723h13.808V460.785a25.867,25.867,0,0,0-.829-6.4h-12.979a5.723,5.723,0,0,0-5.723,5.645Z" transform="translate(723.54 256.131)" fill="#ff527b"/>
      <path id="Path_88294" data-name="Path 88294" d="M1135.779,282.5c21.8,0,27.255,38.482-16.028,56.433s-56.371,6.771-25.644-6.411c46.3-19.874,36.23-50.038,3.206-50.038Z" transform="translate(607.255 159.228)" fill="#d33575"/>
      <path id="Path_88295" data-name="Path 88295" d="M1054.32,398.983c0-73.352,40.874-116.463,55.933-116.463h38.482c-27.568,0-58.278,49.053-58.278,116.463Z" transform="translate(594.299 159.251)" fill="#ff527b"/>
      <path id="Path_88296" data-name="Path 88296" d="M1022.968,282.5c-21.8,0-27.255,38.482,16.028,56.433s56.371,6.771,25.644-6.411c-46.3-19.874-36.23-50.038-3.206-50.038Z" transform="translate(567.295 159.228)" fill="#d33575"/>
      <path id="Path_88297" data-name="Path 88297" d="M1111.465,398.983c0-73.352-40.875-116.463-55.933-116.463H1017.05c27.568,0,58.278,49.053,58.278,116.463Z" transform="translate(573.291 159.251)" fill="#ff527b"/>
      <path id="Path_88298" data-name="Path 88298" d="M1042.2,309.84c-57.5,0-52.915,73.7,19.749,73.7h-40.812c-54.307,0-60.483-73.7-8.491-73.7h21.891" transform="translate(550.626 174.651)" fill="#d33575"/>
      <path id="Path_88299" data-name="Path 88299" d="M1120.726,383.566s-54.15-73.7-76.136-73.7H1000.62c9.116,0,79.576,39.905,83.97,73.7Z" transform="translate(564.03 174.668)" fill="#ff527b"/>
      <path id="Path_88300" data-name="Path 88300" d="M1105.174,383.566s-18.107-73.7-40.108-73.7H1028.21c9.116,0,36.434,39.905,40.812,73.7Z" transform="translate(579.582 174.668)" fill="#d33575"/>
      <path id="Path_88301" data-name="Path 88301" d="M1073.02,309.84c-31.962,0-31.789,73.7,3.956,73.7h-40.812c-28.146,0-30.664-73.7,0-73.7h36.856" transform="translate(571.628 174.651)" fill="#ff527b"/>
      <path id="Path_88302" data-name="Path 88302" d="M1120.219,309.84c57.5,0,52.915,73.7-19.749,73.7h40.812c54.306,0,60.483-73.7,8.491-73.7h-21.892" transform="translate(620.313 174.651)" fill="#d33575"/>
      <path id="Path_88303" data-name="Path 88303" d="M1054.32,383.566s54.15-73.7,76.135-73.7h43.971c-9.116,0-79.576,39.905-83.969,73.7Z" transform="translate(594.299 174.668)" fill="#ff527b"/>
      <path id="Path_88304" data-name="Path 88304" d="M1054.32,383.566s18.107-73.7,40.108-73.7h36.856c-9.116,0-36.434,39.905-40.812,73.7Z" transform="translate(594.299 174.668)" fill="#d33575"/>
      <path id="Path_88305" data-name="Path 88305" d="M1081.426,309.84c31.961,0,31.79,73.7-3.956,73.7h40.812c28.146,0,30.664-73.7,0-73.7h-36.856" transform="translate(607.348 174.651)" fill="#ff527b"/>
      <path id="Path_88306" data-name="Path 88306" d="M1083.946,375.9a.5.5,0,0,1-.482-.368,377.177,377.177,0,0,0-18.052-50.986.5.5,0,0,1,.916-.4,378.164,378.164,0,0,1,18.1,51.122.5.5,0,0,1-.482.633Z" transform="translate(600.81 182.83)" fill="#ff527b"/>
      <path id="Path_88307" data-name="Path 88307" d="M1060.38,327.453a.5.5,0,0,1-.471-.667c.028-.08,2.89-8.122,8.605-20a.5.5,0,1,1,.9.434c-5.69,11.827-8.536,19.823-8.564,19.9A.5.5,0,0,1,1060.38,327.453Z" transform="translate(597.715 173.05)" fill="#d33575"/>
      <path id="Path_88308" data-name="Path 88308" d="M1017,322.975a.5.5,0,0,1-.445-.728c2.5-4.905,4.713-7.833,7.384-9.789a14.89,14.89,0,0,1,4.946-2.362,24.02,24.02,0,0,1,6.4-.756.5.5,0,0,1,0,1,23.045,23.045,0,0,0-6.13.72,13.908,13.908,0,0,0-4.62,2.2c-2.536,1.858-4.655,4.68-7.084,9.437A.5.5,0,0,1,1017,322.975Z" transform="translate(573.263 174.651)" fill="#d33575"/>
      <path id="Path_88309" data-name="Path 88309" d="M1036.78,338.969h0a.5.5,0,0,1-.5-.5,61.292,61.292,0,0,1,.443-6.409,43.335,43.335,0,0,1,3.073-12.186.5.5,0,1,1,.91.415c-3.372,7.4-3.426,18.075-3.426,18.182A.5.5,0,0,1,1036.78,338.969Z" transform="translate(584.412 180.423)" fill="#d33575"/>
      <path id="Path_88310" data-name="Path 88310" d="M1039.771,356.88h-2.439c-9.851,0-22.376,5.457-32.6,14.183l-79.278,67.5,63.532-17,56.793-49.8c10.289-9.054,23.127-14.746,33.2-14.746h2.393Z" transform="translate(521.658 201.166)" fill="#ff527b"/>
      <path id="Path_88311" data-name="Path 88311" d="M1070.3,370.574l-.657,68-46.691-17.044,3.565-51.758c.453-7.818,6.146-12.807,14.792-12.807h43.611C1075.943,357.017,1070.267,362.255,1070.3,370.574Z" transform="translate(576.617 201.217)" fill="#ff527b"/>
      <path id="Path_88312" data-name="Path 88312" d="M1055.532,282.49H1017.05c8.772,0,17.873,4.988,26.192,13.932h33.51C1068.448,287.322,1060.552,282.49,1055.532,282.49Z" transform="translate(573.291 159.234)" fill="#ff7694"/>
      <path id="Path_88313" data-name="Path 88313" d="M1116.793,309.84H1080c12.509,0,20.156,11.384,22.579,25.207h35.511C1135.776,321.239,1128.849,309.84,1116.793,309.84Z" transform="translate(608.775 174.651)" fill="#ff7694"/>
      <rect id="Rectangle_2500" data-name="Rectangle 2500" width="2251.699" height="1078.939" transform="translate(0 1.298)" fill="none"/>
      <rect id="Rectangle_2501" data-name="Rectangle 2501" width="84.142" height="46.379" transform="translate(2308.558 769.456)" fill="#3b8dfe"/>
      <rect id="Rectangle_2502" data-name="Rectangle 2502" width="130.27" height="46.379" transform="translate(2262.429 815.584)" fill="#3b8dfe"/>
      <path id="Line_3409" data-name="Line 3409" d="M130.3.5H0v-1H130.3Z" transform="translate(2262.429 815.584)" fill="#2480fe"/>
      <g id="Group_16464" data-name="Group 16464" transform="translate(141)">
        <rect id="Rectangle_2503" data-name="Rectangle 2503" width="176.618" height="46.379" transform="translate(2075.082 861.932)" fill="#3b8dfe"/>
        <path id="Line_3410" data-name="Line 3410" d="M176.618.5H0v-1H176.618Z" transform="translate(2075.082 862.072)" fill="#2480fe"/>
      </g>
      <rect id="Rectangle_2504" data-name="Rectangle 2504" width="2423.731" height="171.911" transform="translate(0 908.311)" fill="#0f5198"/>
      <path id="Path_88314" data-name="Path 88314" d="M2085.222,603.76c-982.746,0-1458.092,136.15-1458.092,136.15H2085.222Z" transform="translate(353.501 340.328)" fill="#08335f"/>
      <path id="Path_88315" data-name="Path 88315" d="M1215.652,580.88C525.694,580.88,0,700.626,0,700.626V580.88Z" transform="translate(0 327.431)" fill="#0064dc"/>
      <path id="Path_88316" data-name="Path 88316" d="M1031.148,515.18c23.83,0,43.157,14.636,43.157,38.467a43.157,43.157,0,0,1-86.315,0C988.006,529.816,1007.317,515.18,1031.148,515.18Z" transform="translate(556.91 290.397)" fill="#fff"/>
      <path id="Path_88317" data-name="Path 88317" d="M1031.151,526.837a43.126,43.126,0,0,1,42.485,35.871,43.158,43.158,0,1,0-84.986,0,43.126,43.126,0,0,1,42.5-35.871Z" transform="translate(556.907 288.607)" fill="#4ebee5"/>
      <path id="Ellipse_1179" data-name="Ellipse 1179" d="M14.542-.5A15.042,15.042,0,0,1,25.179,25.179,15.042,15.042,0,1,1,3.906,3.906,14.944,14.944,0,0,1,14.542-.5Zm0,29.084A14.042,14.042,0,0,0,24.472,4.613,14.042,14.042,0,0,0,4.613,24.472,13.95,13.95,0,0,0,14.542,28.584Z" transform="translate(1573.516 829.501)" fill="#4ebee5"/>
      <path id="Path_88318" data-name="Path 88318" d="M976.3,520.65l-5.019,60.186h4.253a16.81,16.81,0,0,0,16.81-16.81V541.4a48.1,48.1,0,0,1,20.093-39l-6.146-3.721Z" transform="translate(547.491 281.096)" fill="#fff"/>
      <path id="Path_88319" data-name="Path 88319" d="M1108.7,551.29h-1a67.2,67.2,0,0,0-11.531-37.751,67.718,67.718,0,0,0-29.707-24.463,67.43,67.43,0,0,0-64.032,6.225,67.719,67.719,0,0,0-24.463,29.707,67.1,67.1,0,0,0-5.306,26.282h-1a68.2,68.2,0,0,1,11.7-38.311,68.718,68.718,0,0,1,30.146-24.825,68.43,68.43,0,0,1,64.982,6.318,68.719,68.719,0,0,1,24.825,30.146A68.091,68.091,0,0,1,1108.7,551.29Z" transform="translate(547.987 272.41)" fill="#91d8e8"/>
    </g>
  </g>
</svg>
