<svg xmlns="http://www.w3.org/2000/svg" xmlns:xlink="http://www.w3.org/1999/xlink" style="" version="1.1" xml:space="preserve" width="32" height="32"><rect id="backgroundrect" width="100%" height="100%" x="0" y="0" fill="none" stroke="none" style="" class=""/><g class="currentLayer" style=""><title>Layer 1</title><path fill="#ffffff" fill-opacity="1" stroke="#ffffff" stroke-opacity="1" stroke-width="1" stroke-dasharray="none" stroke-linejoin="miter" stroke-linecap="butt" stroke-dashoffset="" fill-rule="nonzero" opacity="1" marker-start="" marker-mid="" marker-end="" d="M0,2 C0,2 0,2 0,2 C0,2 0,2 0,2 C0,2 0,2 0,2 C0,2 0,2 0,2 Z" id="svg_4"/><path fill="#ffffff" fill-opacity="1" stroke="#ffffff" stroke-opacity="1" stroke-width="1" stroke-dasharray="none" stroke-linejoin="miter" stroke-linecap="butt" stroke-dashoffset="" fill-rule="nonzero" opacity="1" marker-start="" marker-mid="" marker-end="" d="M0.6091355084519637,16.436098396870907 C0.6091355084519637,7.804103306698105 7.477446526906533,0.8121819715265465 15.956851892031743,0.8121819715265465 C24.436257257156953,0.8121819715265465 31.304568275611523,7.804103306698105 31.304568275611523,16.436098396870907 C31.304568275611523,25.06809348704371 25.34098038358772,31.319795325759586 16.861584920215016,31.319795325759586 C8.382179555089799,31.319795325759586 0.6091355084519637,25.06809348704371 0.6091355084519637,16.436098396870907 z" id="svg_8" class=""/><path d="M27.489789940178397,13.197644471764564 l-2.058,-5.88 C24.870789940178398,5.7156444717645645 23.352789940178397,4.6386444717645645 21.65478994017839,4.6386444717645645 H10.9127899401784 C9.214789940178392,4.6386444717645645 7.696789940178391,5.7156444717645645 7.136789940178396,7.316644471764565 l-2.058,5.88 C3.9797899401783923,13.919644471764565 3.2837899401783943,15.168644471764566 3.2837899401783943,16.542644471764564 V23.638644471764565 c0,1.105 0.8950000000000021,2 2,2 s2,-0.8950000000000021 2,-2 v-1.2610000000000001 c0,0 5.281,0.261 9,0.261 s9,-0.261 9,-0.261 V23.638644471764565 c0,1.105 0.8950000000000021,2 2,2 s2,-0.8950000000000021 2,-2 v-7.096 C29.283789940178394,15.168644471764566 28.58678994017839,13.919644471764565 27.489789940178397,13.197644471764564 zM7.878789940178393,11.251644471764564 l1.146,-3.274 C9.305789940178393,7.1756444717645635 10.06278994017839,6.6386444717645645 10.9127899401784,6.6386444717645645 h10.742 c0.8500000000000006,0 1.6070000000000002,0.537 1.8880000000000003,1.339 l1.146,3.274 c0.18000000000000024,0.515 -0.24900000000000044,1.034 -0.788,0.9470000000000006 C21.939789940178393,11.881644471764565 19.4187899401784,11.638644471764565 16.283789940178394,11.638644471764565 c-3.135,0 -5.6560000000000015,0.24300000000000024 -7.617,0.56 C8.127789940178396,12.285644471764565 7.6987899401783935,11.766644471764565 7.878789940178393,11.251644471764564 zM7.783789940178394,18.638644471764565 C6.955789940178391,18.638644471764565 6.283789940178394,17.966644471764564 6.283789940178394,17.138644471764565 S6.955789940178391,15.638644471764565 7.783789940178394,15.638644471764565 S9.283789940178394,16.310644471764565 9.283789940178394,17.138644471764565 S8.611789940178397,18.638644471764565 7.783789940178394,18.638644471764565 zM19.283789940178394,17.638644471764565 h-6 c-0.552,0 -1,-0.44800000000000106 -1,-1 c0,-0.552 0.44800000000000106,-1 1,-1 h6 c0.552,0 1,0.44800000000000106 1,1 C20.283789940178394,17.190644471764564 19.835789940178394,17.638644471764565 19.283789940178394,17.638644471764565 zM24.783789940178394,18.638644471764565 c-0.8280000000000006,0 -1.5,-0.6720000000000026 -1.5,-1.5 s0.6720000000000026,-1.5 1.5,-1.5 s1.5,0.6720000000000026 1.5,1.5 S25.611789940178397,18.638644471764565 24.783789940178394,18.638644471764565 z" id="svg_1" class=""/></g></svg>