<svg xmlns="http://www.w3.org/2000/svg" xmlns:xlink="http://www.w3.org/1999/xlink" width="1536" height="600" viewBox="0 0 1536 600">
  <defs>
    <clipPath id="clip-path">
      <rect id="Rectangle_271" data-name="Rectangle 271" width="1561" height="749" transform="translate(-0.43 -0.142)"/>
    </clipPath>
    <clipPath id="clip-full-coverage-car-insurance_hero-block-image">
      <rect width="1536" height="600"/>
    </clipPath>
  </defs>
  <g id="full-coverage-car-insurance_hero-block-image" clip-path="url(#clip-full-coverage-car-insurance_hero-block-image)">
    <rect width="1536" height="600" fill="#fff"/>
    <g id="hero-full-coverage-car-insurance" transform="translate(-388.007 -154.412)">
      <rect id="Rectangle_268" data-name="Rectangle 268" width="1707" height="749" transform="translate(329.007 64.412)" fill="#2480fe"/>
      <g id="Group_60" data-name="Group 60" transform="translate(0.438 -0.446)">
        <g id="a" clip-path="url(#clip-path)">
          <ellipse id="Ellipse_152" data-name="Ellipse 152" cx="344.237" cy="12.143" rx="344.237" ry="12.143" transform="translate(810.731 677.897)" fill="#0064dc"/>
          <path id="Path_19" data-name="Path 19" d="M1099.446,281.492a20.582,20.582,0,0,1-18.106-22.768,20.871,20.871,0,0,1,3.578-9.433l11.6-16.48h0a32.745,32.745,0,1,0-53.451,0h0l11.6,16.48a20.515,20.515,0,0,1-4.987,28.623,20.126,20.126,0,0,1-9.432,3.578l-3.144.325,12.252,9.541,20.492-1.518,20.491,1.518,12.252-9.541Z" transform="translate(86.963 15.63)" fill="#0064dc"/>
          <path id="Path_20" data-name="Path 20" d="M1396.765,641.882a311.061,311.061,0,0,0,5.53-58.439c0-171.739-139.213-310.843-310.843-310.843S780.5,411.7,780.5,583.335a310.219,310.219,0,0,0,5.529,58.439Z" transform="translate(65.359 23.329)" fill="#0064dc"/>
          <path id="Path_21" data-name="Path 21" d="M872.4,406.577a12.5,12.5,0,0,1-9.388-20.748c4.082-4.649,8.275-9.072,12.7-13.493a293.3,293.3,0,0,1,59.545-46.043,12.5,12.5,0,0,1,12.627,21.577A268.324,268.324,0,0,0,893.4,390c-4.049,4.049-7.879,8.083-11.6,12.325A12.471,12.471,0,0,1,872.4,406.577ZM986.735,328.3a12.5,12.5,0,0,1-4.3-24.24l1.08-.393a12.5,12.5,0,0,1,8.508,23.508l-.988.36A12.477,12.477,0,0,1,986.735,328.3Z" transform="translate(73.098 26.428)" fill="#fff"/>
          <path id="Path_22" data-name="Path 22" d="M1396.765,642.382h0l-610.735-.108a.5.5,0,0,1-.491-.406,311.422,311.422,0,1,1,617.256-58.425c0,9.786-.466,19.674-1.385,29.389s-2.317,19.529-4.154,29.144A.5.5,0,0,1,1396.765,642.382Zm-610.322-1.108,609.908.108c1.793-9.455,3.159-19.089,4.063-28.644.916-9.683,1.38-19.539,1.38-29.294a312.715,312.715,0,0,0-6.307-62.564,308.607,308.607,0,0,0-46.706-110.98,311.24,311.24,0,0,0-136.549-112.42,308.815,308.815,0,0,0-58.248-18.077,313.409,313.409,0,0,0-125.071,0,308.91,308.91,0,0,0-110.993,46.676,311.262,311.262,0,0,0-112.51,136.492,308.441,308.441,0,0,0-18.1,58.236,312.026,312.026,0,0,0-.869,120.467Z" transform="translate(65.359 23.329)" fill="#fff"/>
          <path id="Ellipse_153" data-name="Ellipse 153" d="M22.226-5.136A27.128,27.128,0,0,1,33.908-2.523a5.136,5.136,0,1,1-4.39,9.287,16.932,16.932,0,0,0-7.292-1.628A5.136,5.136,0,0,1,17.09,0,5.136,5.136,0,0,1,22.226-5.136Z" transform="translate(1134.585 207.241)" fill="#fff"/>
          <path id="Path_23" data-name="Path 23" d="M789.237,590.2h607.158a24.941,24.941,0,0,1,24.937,24.937h0a24.941,24.941,0,0,1-24.937,24.937H789.237A24.94,24.94,0,0,1,764.3,615.137h0A24.94,24.94,0,0,1,789.237,590.2Z" transform="translate(63.995 50.074)" fill="#ffa452"/>
          <path id="Path_24" data-name="Path 24" d="M1010.782,609.032H765.1a.5.5,0,0,1,0-1h245.682a17.916,17.916,0,0,0,17.932-17.932.5.5,0,0,1,1,0,18.9,18.9,0,0,1-18.932,18.932Z" transform="translate(64.063 50.066)" fill="#ff8f2f"/>
          <path id="Path_25" data-name="Path 25" d="M1124,629.464H768.7a.5.5,0,0,1,0-1H1124a69.674,69.674,0,0,0,20.225-3,70.468,70.468,0,0,0,18.531-8.734l6.286-4.227a71.471,71.471,0,0,1,18.8-8.859,70.674,70.674,0,0,1,20.515-3.044h208.819a.5.5,0,0,1,0,1H1208.347a69.675,69.675,0,0,0-20.224,3,70.468,70.468,0,0,0-18.531,8.734l-6.286,4.227a71.47,71.47,0,0,1-18.8,8.859A70.67,70.67,0,0,1,1124,629.464Z" transform="translate(64.366 50.992)" fill="#ff8f2f"/>
          <path id="Path_26" data-name="Path 26" d="M1183.9,638.637a.5.5,0,0,1-.311-.892l18.323-14.529a49.358,49.358,0,0,1,14.255-7.805,48.445,48.445,0,0,1,15.98-2.711h153.741a.5.5,0,0,1,0,1H1232.147a47.448,47.448,0,0,0-15.651,2.656A48.355,48.355,0,0,0,1202.532,624l-18.321,14.527A.5.5,0,0,1,1183.9,638.637Z" transform="translate(99.33 52.011)" fill="#ff8f2f"/>
          <path id="Ellipse_154" data-name="Ellipse 154" d="M9.541-.5A10.041,10.041,0,1,1-.5,9.541,10.052,10.052,0,0,1,9.541-.5Zm0,19.082A9.041,9.041,0,1,0,.5,9.541,9.051,9.051,0,0,0,9.541,18.582Z" transform="translate(1185.109 649.057)" fill="#ff8f2f"/>
          <path id="Path_27" data-name="Path 27" d="M1383.9,581H797.666a9.9,9.9,0,0,1-9.866,9.866h605.965A9.833,9.833,0,0,1,1383.9,581Z" transform="translate(65.974 49.3)" fill="#d1196d"/>
          <path id="Path_28" data-name="Path 28" d="M1327.2,581.859H845.7l5.855-5.963a16.973,16.973,0,0,1,12.143-5.1h445.5a17.16,17.16,0,0,1,12.143,5.1Z" transform="translate(70.85 48.441)" fill="#f65992"/>
          <path id="Path_29" data-name="Path 29" d="M948.156,474.765l-4.445,7.373-28.732-5.2a10.666,10.666,0,0,1-8.565-12.36c.108-.434.217-.867.325-1.193h0a10.523,10.523,0,0,1,12.143-7.264l19.191,3.686Z" transform="translate(75.947 38.765)" fill="#fff"/>
          <path id="Path_30" data-name="Path 30" d="M941.234,500.9H925.621c-14.312,0-26.021,17.022-26.021,37.947s11.6,37.947,26.021,37.839h15.613c14.312,0,26.021-17.022,26.021-37.947S955.654,500.9,941.234,500.9Z" transform="translate(75.389 42.554)" fill="#042647"/>
          <ellipse id="Ellipse_155" data-name="Ellipse 155" cx="17.456" cy="25.479" rx="17.456" ry="25.479" transform="translate(999.167 555.814)" fill="#0f5198"/>
          <path id="Path_31" data-name="Path 31" d="M1107.134,500.9h-15.613c-14.312,0-26.021,17.022-26.021,37.947s11.6,37.947,26.021,37.839h15.613c14.311,0,26.021-17.022,26.021-37.947S1121.554,500.9,1107.134,500.9Z" transform="translate(89.359 42.554)" fill="#042647"/>
          <ellipse id="Ellipse_156" data-name="Ellipse 156" cx="17.456" cy="25.479" rx="17.456" ry="25.479" transform="translate(1179.037 555.814)" fill="#0f5198"/>
          <path id="Path_32" data-name="Path 32" d="M878.781,559.134h309.325l12.252-31.876h-8.891l-4.554-47.6-30.25-4.228L1139.75,404.2H999.779a24.906,24.906,0,0,0-20.058,10.083l-47.272,62.993s-38.164,10.083-58.005,19.082a12.077,12.077,0,0,0-7.047,10.951V534.63h0a6.409,6.409,0,0,0-6.4,6.4,6.725,6.725,0,0,0,.976,3.469l5.529,8.674a13.918,13.918,0,0,0,11.276,5.963Z" transform="translate(72.138 34.411)" fill="#9ac8ff"/>
          <rect id="Rectangle_269" data-name="Rectangle 269" width="253.488" height="59.415" transform="translate(1093.276 534.13)" fill="#042647"/>
          <path id="Path_33" data-name="Path 33" d="M1046.434,500.9h-15.613c-14.312,0-26.021,17.022-26.021,37.947s11.6,37.947,26.021,37.839h15.613c14.312,0,26.021-17.022,26.021-37.947S1060.854,500.9,1046.434,500.9Z" transform="translate(84.248 42.554)" fill="#042647"/>
          <ellipse id="Ellipse_157" data-name="Ellipse 157" cx="17.456" cy="25.479" rx="17.456" ry="25.479" transform="translate(1113.226 555.814)" fill="#fff"/>
          <path id="Path_34" data-name="Path 34" d="M1044.556,520.974c8.674,0,15.829,9.107,17.239,21.142a28.351,28.351,0,0,0,.217-4.337c0-14.095-7.806-25.479-17.456-25.479s-17.456,11.384-17.456,25.479c0,1.409.108,2.819.217,4.337C1028.835,530.081,1035.991,520.974,1044.556,520.974Z" transform="translate(86.126 43.514)" fill="#6bacfb"/>
          <path id="Ellipse_158" data-name="Ellipse 158" d="M5.855-.5a5.584,5.584,0,0,1,4.553,2.727,11.314,11.314,0,0,1,1.8,6.339,11.314,11.314,0,0,1-1.8,6.339,5.584,5.584,0,0,1-4.553,2.727A5.584,5.584,0,0,1,1.3,14.9,11.314,11.314,0,0,1-.5,8.565,11.314,11.314,0,0,1,1.3,2.227,5.584,5.584,0,0,1,5.855-.5Zm0,17.131A4.622,4.622,0,0,0,9.582,14.34a10.31,10.31,0,0,0,1.628-5.774A10.31,10.31,0,0,0,9.582,2.791,4.622,4.622,0,0,0,5.855.5,4.622,4.622,0,0,0,2.128,2.791,10.31,10.31,0,0,0,.5,8.565,10.31,10.31,0,0,0,2.128,14.34,4.622,4.622,0,0,0,5.855,16.631Z" transform="translate(1124.827 572.728)" fill="#6bacfb"/>
          <path id="Path_35" data-name="Path 35" d="M1212.334,500.9h-15.613c-14.312,0-26.021,17.022-26.021,37.947s11.6,37.947,26.021,37.839h15.613c14.312,0,26.021-17.022,26.021-37.947S1226.754,500.9,1212.334,500.9Z" transform="translate(98.218 42.554)" fill="#042647"/>
          <ellipse id="Ellipse_159" data-name="Ellipse 159" cx="17.456" cy="25.479" rx="17.456" ry="25.479" transform="translate(1293.096 555.814)" fill="#fff"/>
          <path id="Path_36" data-name="Path 36" d="M1210.456,520.974c8.674,0,15.829,9.107,17.239,21.142a28.351,28.351,0,0,0,.217-4.337c0-14.095-7.806-25.479-17.456-25.479S1193,523.684,1193,537.779c0,1.409.108,2.819.217,4.337C1194.735,530.081,1201.891,520.974,1210.456,520.974Z" transform="translate(100.096 43.514)" fill="#6bacfb"/>
          <path id="Ellipse_160" data-name="Ellipse 160" d="M5.855-.5a5.584,5.584,0,0,1,4.553,2.727,11.314,11.314,0,0,1,1.8,6.339,11.314,11.314,0,0,1-1.8,6.339,5.584,5.584,0,0,1-4.553,2.727A5.584,5.584,0,0,1,1.3,14.9,11.314,11.314,0,0,1-.5,8.565,11.314,11.314,0,0,1,1.3,2.227,5.584,5.584,0,0,1,5.855-.5Zm0,17.131A4.622,4.622,0,0,0,9.582,14.34a10.31,10.31,0,0,0,1.628-5.774A10.31,10.31,0,0,0,9.582,2.791,4.622,4.622,0,0,0,5.855.5,4.622,4.622,0,0,0,2.128,2.791,10.31,10.31,0,0,0,.5,8.565,10.31,10.31,0,0,0,2.128,14.34,4.622,4.622,0,0,0,5.855,16.631Z" transform="translate(1304.697 572.728)" fill="#6bacfb"/>
          <path id="Path_37" data-name="Path 37" d="M1292.267,527.166l-3.469-36a14.647,14.647,0,0,0-12.685-13.227l-18.648-2.6-36.43-51.283A47.741,47.741,0,0,0,1182.22,404h-67.329a25.06,25.06,0,0,0-21.034,11.384l-40.224,61.583-75.027,19.949A14.025,14.025,0,0,0,968.2,510.469v23.744a6.409,6.409,0,0,0-6.4,6.4,6.726,6.726,0,0,0,.976,3.469l5.529,8.674a13.316,13.316,0,0,0,11.276,6.18h36.538a4.974,4.974,0,0,0,4.987-4.987h0v-7.156c0-23.094,13.01-41.851,29.057-41.851s29.057,18.757,29.057,41.851v7.156a4.974,4.974,0,0,0,4.987,4.987h111.674a4.974,4.974,0,0,0,4.987-4.987h0v-7.156c0-23.094,13.011-41.851,29.057-41.851s29.057,18.757,29.057,41.851v7.156a4.974,4.974,0,0,0,4.987,4.987h16.914a11.535,11.535,0,0,0,10.625-7.264L1297.8,535.3a6.007,6.007,0,0,0-3.469-7.806,13.563,13.563,0,0,0-2.06-.325Z" transform="translate(80.627 34.394)" fill="#fff"/>
          <path id="Path_38" data-name="Path 38" d="M1096.787,414.5h-123.6L927,476.083h129.671Z" transform="translate(77.696 35.279)" fill="#042647"/>
          <path id="Path_39" data-name="Path 39" d="M1079.99,440.187l16.7-25.587h-123.6L926.9,476.183l31.659-22.118a77.745,77.745,0,0,1,44.236-13.878Z" transform="translate(77.688 35.287)" fill="#004085"/>
          <path id="Path_40" data-name="Path 40" d="M1279.088,527.166l-3.469-36a14.647,14.647,0,0,0-12.685-13.227l-18.648-2.6-36.43-51.283A47.742,47.742,0,0,0,1169.041,404H1118.3l16.914,71.233,30.25,4.228,4.554,47.6h8.891l-12.252,31.876h16.263a4.974,4.974,0,0,0,4.987-4.987h0v-7.156c0-23.094,13.01-41.851,29.057-41.851s29.057,18.757,29.057,41.851v7.156a4.974,4.974,0,0,0,4.987,4.987h16.914a11.535,11.535,0,0,0,10.625-7.264l6.289-16.372a6.007,6.007,0,0,0-3.469-7.806,19.159,19.159,0,0,0-2.277-.325Z" transform="translate(93.805 34.394)" fill="#fff"/>
          <path id="Path_41" data-name="Path 41" d="M937,501.32v12.468l33.285-2.71v-7.59a14.054,14.054,0,0,1,10.408-13.553l11.276-3.036h0Z" transform="translate(78.538 41.375)" fill="#3b8dfe"/>
          <path id="Path_42" data-name="Path 42" d="M967.6,503.588v7.589l3.253-.217a4.149,4.149,0,0,0,3.686-3.144l1.409-5.638a7.276,7.276,0,0,1,4.771-5.1l5.638-1.735a4.166,4.166,0,0,0,2.927-3.9V487l-11.276,3.036A13.959,13.959,0,0,0,967.6,503.588Z" transform="translate(81.115 41.384)" fill="#ffa452"/>
          <path id="Line_3" data-name="Line 3" d="M0,5.054A.5.5,0,0,1-.5,4.622a.5.5,0,0,1,.427-.563L33.109-.5a.5.5,0,0,1,.563.427A.5.5,0,0,1,33.245.5L.068,5.049A.5.5,0,0,1,0,5.054Z" transform="translate(1015.538 544.972)" fill="#9ac8ff"/>
          <path id="Path_43" data-name="Path 43" d="M889.235,500.756,868.526,493.6a11.751,11.751,0,0,0-1.626,5.963v11.384l22.226,2.385V500.756Z" transform="translate(72.635 41.94)" fill="#3b8dfe"/>
          <path id="Line_4" data-name="Line 4" d="M22.335,4.62a.5.5,0,0,1-.091-.008L-.091.492a.5.5,0,0,1-.4-.582.5.5,0,0,1,.582-.4l22.335,4.12a.5.5,0,0,1-.09.992Z" transform="translate(939.535 545.406)" fill="#9ac8ff"/>
          <path id="Line_5" data-name="Line 5" d="M109.18.5H0A.5.5,0,0,1-.5,0,.5.5,0,0,1,0-.5H109.18a.5.5,0,0,1,.5.5A.5.5,0,0,1,109.18.5Z" transform="translate(939.535 568.717)" fill="#6bacfb"/>
          <ellipse id="Ellipse_161" data-name="Ellipse 161" cx="26.78" cy="6.939" rx="26.78" ry="6.939" transform="translate(961.87 535.757)" fill="#2e63ac"/>
          <rect id="Rectangle_270" data-name="Rectangle 270" width="53.668" height="26.021" transform="translate(961.87 542.695)" fill="#042647"/>
          <path id="Line_6" data-name="Line 6" d="M0,26.521a.5.5,0,0,1-.5-.5V0A.5.5,0,0,1,0-.5.5.5,0,0,1,.5,0V26.021A.5.5,0,0,1,0,26.521Z" transform="translate(988.65 542.695)" fill="#2e63ac"/>
          <path id="Path_44" data-name="Path 44" d="M991.22,512.1h5.746a4.118,4.118,0,0,1,4.12,4.12h0a4.118,4.118,0,0,1-4.12,4.12H991.22a4.118,4.118,0,0,1-4.12-4.12h0A4.118,4.118,0,0,1,991.22,512.1Z" transform="translate(82.757 43.498)" fill="#ff8f2f"/>
          <path id="Path_45" data-name="Path 45" d="M1055.2,478.252h139.1a13.066,13.066,0,0,0,10.95-20.275l-23.31-35.671a17.246,17.246,0,0,0-14.42-7.806H1104.64a12.307,12.307,0,0,0-10.192,5.421Z" transform="translate(88.492 35.279)" fill="#ff8f2f"/>
          <path id="Path_46" data-name="Path 46" d="M1102.653,414.5a12.307,12.307,0,0,0-10.192,5.421L1078.8,440.2h112.758l-11.6-17.781a17.246,17.246,0,0,0-14.42-7.806Z" transform="translate(90.479 35.279)" fill="#ffa452"/>
          <path id="Line_7" data-name="Line 7" d="M0,64.252a.5.5,0,0,1-.5-.5V0A.5.5,0,0,1,0-.5.5.5,0,0,1,.5,0V63.752A.5.5,0,0,1,0,64.252Z" transform="translate(1225.767 449.779)" fill="#fff"/>
          <path id="Path_47" data-name="Path 47" d="M1059.3,480.572l17.456,10.192a8.786,8.786,0,0,0,11.926-3.036h0a8.813,8.813,0,0,0-2.711-11.818L1083.8,474.5l-15.829,1.409Z" transform="translate(88.837 40.331)" fill="#9ac8ff"/>
          <path id="Path_48" data-name="Path 48" d="M1055.2,474.765l4.445,7.373,28.732-5.2a10.665,10.665,0,0,0,8.565-12.36c-.108-.434-.217-.867-.325-1.193h0a10.523,10.523,0,0,0-12.143-7.264l-19.19,3.686Z" transform="translate(88.492 38.765)" fill="#fff"/>
          <path id="Path_49" data-name="Path 49" d="M868.4,495.369l20.708,7.156c0-10.408,42.718-31.225,42.718-31.225s-38.164,10.083-58.005,19.082a12.093,12.093,0,0,0-5.421,4.987Z" transform="translate(72.761 40.062)" fill="#fff"/>
          <path id="Path_50" data-name="Path 50" d="M937,503.125a.5.5,0,0,1-.5-.5c0-3.178,3-6.129,9.158-9.021,5.569-2.614,13.675-5.168,24.783-7.81,22.261-5.293,54.16-10.284,85.316-14.889a.5.5,0,0,1,.146.989c-31.133,4.6-63.007,9.588-85.231,14.873-11.04,2.625-19.083,5.158-24.589,7.742a24.834,24.834,0,0,0-6.46,4.068,5.745,5.745,0,0,0-2.122,4.048A.5.5,0,0,1,937,503.125Z" transform="translate(78.538 40.07)" fill="#fff"/>
          <path id="Path_51" data-name="Path 51" d="M969.5,415.884a.5.5,0,0,1-.394-.807l.759-.976a27.3,27.3,0,0,1,9.581-7.827,27.619,27.619,0,0,1,12.065-2.775h189.954a.5.5,0,0,1,0,1H991.509a26.614,26.614,0,0,0-11.625,2.673,26.3,26.3,0,0,0-9.229,7.54l-.76.978A.5.5,0,0,1,969.5,415.884Z" transform="translate(81.275 34.394)" fill="#fff"/>
          <path id="Path_52" data-name="Path 52" d="M867.389,544.478a.5.5,0,0,1-.43-.244l-5.418-9.1a6.693,6.693,0,0,1-.94-3.4,6.8,6.8,0,0,1,6.288-6.77V509.5a.5.5,0,0,1,1,0v15.938a.5.5,0,0,1-.5.5,5.8,5.8,0,0,0-5.788,5.788,5.732,5.732,0,0,0,.791,2.879l.006.009,5.421,9.107a.5.5,0,0,1-.429.756Z" transform="translate(72.147 43.279)" fill="#fff"/>
          <path id="Line_8" data-name="Line 8" d="M0,80.515a.5.5,0,0,1-.5-.5V0A.5.5,0,0,1,0-.5.5.5,0,0,1,.5,0V80.015A.5.5,0,0,1,0,80.515Z" transform="translate(1225.767 513.53)" fill="#6bacfb"/>
          <path id="Line_9" data-name="Line 9" d="M89.664,3H0A3,3,0,0,1-3,0,3,3,0,0,1,0-3H89.664a3,3,0,0,1,3,3A3,3,0,0,1,89.664,3Z" transform="translate(1174.484 578.8)" fill="#004085"/>
          <path id="Path_53" data-name="Path 53" d="M1121.971,486.805h-13.119a3.753,3.753,0,1,1,0-7.505h13.119a3.753,3.753,0,1,1,0,7.505Zm-13.119-6.505a2.753,2.753,0,1,0,0,5.505h13.119a2.753,2.753,0,1,0,0-5.505Z" transform="translate(92.736 40.778)" fill="#6bacfb"/>
          <path id="Path_54" data-name="Path 54" d="M1185.972,486.805h-13.119a3.753,3.753,0,1,1,0-7.505h13.119a3.753,3.753,0,1,1,0,7.505Zm-13.119-6.505a2.753,2.753,0,0,0,0,5.505h13.119a2.756,2.756,0,0,0,2.753-2.753,2.692,2.692,0,0,0-2.753-2.753Z" transform="translate(98.125 40.778)" fill="#6bacfb"/>
          <path id="Line_10" data-name="Line 10" d="M36.646.5H0A.5.5,0,0,1-.5,0,.5.5,0,0,1,0-.5H36.646a.5.5,0,0,1,.5.5A.5.5,0,0,1,36.646.5Z" transform="translate(1336.248 561.561)" fill="#6bacfb"/>
          <path id="Path_55" data-name="Path 55" d="M1264.293,484.761a11.666,11.666,0,0,0-.759-3.361h-3.361a7.38,7.38,0,0,0-7.373,7.373v.651l1.735,18.323a7.221,7.221,0,0,0,7.264,6.614h5.2Z" transform="translate(105.132 40.912)" fill="#f65992"/>
          <path id="Path_56" data-name="Path 56" d="M1254.542,506a7.221,7.221,0,0,0,7.264,6.614h5.2l-1.084-11.709H1254Z" transform="translate(105.233 42.554)" fill="#d1196d"/>
        </g>
      </g>
    </g>
  </g>
</svg>
